<svg id="visual" viewBox="0 0 900 600" width="900" height="600" xmlns="http://www.w3.org/2000/svg" xmlns:xlink="http://www.w3.org/1999/xlink" version="1.1"><rect width="900" height="600" fill="#931F1F"></rect><g><g transform="translate(582 186)"><path d="M9.6 -2.7C11 1.1 9.7 6.3 6.4 8.6C3.1 11 -2.1 10.5 -5.8 7.8C-9.5 5.1 -11.8 0.3 -10.6 -3.4C-9.4 -7 -4.7 -9.4 -0.3 -9.4C4.1 -9.3 8.2 -6.6 9.6 -2.7Z" stroke="#F7760E" fill="none" stroke-width="20"></path></g><g transform="translate(218 189)"><path d="M9.8 -3.2C11.1 0.8 9.4 5.8 6.2 8C2.9 10.3 -1.9 9.8 -5.2 7.4C-8.5 4.9 -10.2 0.5 -9.1 -3.3C-8 -7.1 -4 -10.4 0.1 -10.4C4.2 -10.4 8.5 -7.3 9.8 -3.2Z" stroke="#F7760E" fill="none" stroke-width="20"></path></g><g transform="translate(605 147)"><path d="M7.5 -2.5C8.8 1.4 8.1 5.8 5.5 7.8C2.8 9.8 -1.8 9.3 -4.7 7.1C-7.6 4.8 -8.8 0.8 -7.8 -2.9C-6.7 -6.5 -3.4 -9.8 -0.1 -9.7C3.2 -9.7 6.3 -6.4 7.5 -2.5Z" stroke="#F7760E" fill="none" stroke-width="20"></path></g><g transform="translate(273 526)"><path d="M9.3 -2.7C10.4 0.5 8.7 5 5.6 7.1C2.5 9.2 -1.9 8.9 -5 6.7C-8.2 4.4 -10.1 0.3 -9.1 -2.9C-8.1 -6 -4 -8.1 0 -8.1C4.1 -8.1 8.1 -6 9.3 -2.7Z" stroke="#F7760E" fill="none" stroke-width="20"></path></g><g transform="translate(301 259)"><path d="M7.5 -2.1C8.7 1.2 7.9 5.4 5.2 7.4C2.6 9.3 -1.9 9 -4.7 6.8C-7.6 4.7 -8.9 0.7 -7.9 -2.4C-6.8 -5.5 -3.4 -7.6 -0.1 -7.6C3.2 -7.6 6.4 -5.3 7.5 -2.1Z" stroke="#F7760E" fill="none" stroke-width="20"></path></g><g transform="translate(698 399)"><path d="M8.8 -2.9C9.8 0.4 8.1 4.6 4.9 7C1.8 9.3 -2.9 9.8 -5.6 7.8C-8.4 5.8 -9.3 1.2 -8 -2.3C-6.8 -5.9 -3.4 -8.4 0.2 -8.5C3.8 -8.6 7.7 -6.2 8.8 -2.9Z" stroke="#F7760E" fill="none" stroke-width="20"></path></g><g transform="translate(647 5)"><path d="M7.7 -2.3C8.9 1.4 8.2 5.8 5.6 7.7C3.1 9.5 -1.3 8.7 -4.3 6.4C-7.2 4.2 -8.7 0.4 -7.8 -2.8C-6.8 -6 -3.4 -8.7 -0.1 -8.7C3.2 -8.7 6.4 -5.9 7.7 -2.3Z" stroke="#F7760E" fill="none" stroke-width="20"></path></g><g transform="translate(833 407)"><path d="M9 -3.1C10.1 0.6 8.5 5 5.3 7.4C2.1 9.7 -2.7 10.1 -5.9 7.8C-9.1 5.6 -10.7 0.8 -9.5 -3.1C-8.2 -7 -4.1 -10 -0.1 -9.9C3.9 -9.9 7.9 -6.9 9 -3.1Z" stroke="#F7760E" fill="none" stroke-width="20"></path></g><g transform="translate(355 399)"><path d="M8.7 -2.8C9.8 0.5 8.1 4.7 5 7C1.9 9.3 -2.8 9.7 -5.7 7.7C-8.6 5.6 -9.9 1 -8.6 -2.5C-7.4 -6 -3.7 -8.5 0.1 -8.5C3.8 -8.5 7.6 -6.1 8.7 -2.8Z" stroke="#F7760E" fill="none" stroke-width="20"></path></g><g transform="translate(638 130)"><path d="M8.1 -2.6C9.3 1.1 8.3 5.5 5.5 7.6C2.7 9.7 -2 9.3 -5.1 7.1C-8.2 4.8 -9.8 0.5 -8.7 -3C-7.6 -6.5 -3.8 -9.2 -0.2 -9.2C3.5 -9.1 6.9 -6.2 8.1 -2.6Z" stroke="#F7760E" fill="none" stroke-width="20"></path></g><g transform="translate(779 218)"><path d="M9.1 -2.7C10.4 0.9 8.9 5.6 5.8 7.8C2.8 10 -2 9.7 -5.1 7.3C-8.1 5 -9.5 0.7 -8.4 -2.7C-7.3 -6.2 -3.6 -8.9 0.1 -8.9C3.9 -8.9 7.8 -6.4 9.1 -2.7Z" stroke="#F7760E" fill="none" stroke-width="20"></path></g><g transform="translate(205 110)"><path d="M8.5 -2.8C9.8 1 8.6 5.6 5.7 7.7C2.8 9.7 -1.7 9.2 -4.9 6.9C-8 4.6 -9.6 0.5 -8.5 -3.1C-7.5 -6.7 -3.7 -9.7 0 -9.7C3.6 -9.7 7.3 -6.6 8.5 -2.8Z" stroke="#F7760E" fill="none" stroke-width="20"></path></g><g transform="translate(538 506)"><path d="M8.3 -2.9C9.5 0.9 8.3 5.4 5.4 7.4C2.6 9.5 -2 9.2 -5.3 6.9C-8.6 4.6 -10.7 0.2 -9.6 -3.5C-8.5 -7.2 -4.2 -10.2 -0.3 -10.1C3.6 -10 7.1 -6.7 8.3 -2.9Z" stroke="#F7760E" fill="none" stroke-width="20"></path></g><g transform="translate(877 173)"><path d="M9.2 -3.3C10.3 0.3 8.4 4.6 5.3 6.6C2.3 8.7 -1.9 8.5 -4.8 6.5C-7.6 4.4 -9.1 0.5 -8.1 -3C-7.1 -6.5 -3.5 -9.5 0.3 -9.6C4.1 -9.6 8.1 -6.8 9.2 -3.3Z" stroke="#F7760E" fill="none" stroke-width="20"></path></g><g transform="translate(207 56)"><path d="M8.1 -2.1C9.4 1.5 8.8 6.3 6 8.4C3.2 10.5 -1.7 9.8 -4.7 7.4C-7.8 5 -9 0.8 -7.9 -2.4C-6.8 -5.7 -3.4 -8.1 0 -8.1C3.4 -8.1 6.7 -5.7 8.1 -2.1Z" stroke="#F7760E" fill="none" stroke-width="20"></path></g><g transform="translate(142 77)"><path d="M8 -2.6C9.2 0.9 8 5.1 5.1 7.3C2.2 9.4 -2.4 9.6 -5.6 7.3C-8.8 5.1 -10.6 0.5 -9.5 -3C-8.3 -6.6 -4.1 -9.1 -0.3 -9C3.5 -8.8 6.9 -6.1 8 -2.6Z" stroke="#F7760E" fill="none" stroke-width="20"></path></g><g transform="translate(73 277)"><path d="M8.1 -3.1C9.1 0.4 7.6 4.3 4.7 6.4C1.8 8.5 -2.3 8.7 -5.3 6.7C-8.2 4.7 -9.9 0.5 -8.8 -3.2C-7.7 -6.8 -3.9 -9.8 -0.2 -9.8C3.6 -9.7 7.1 -6.6 8.1 -3.1Z" stroke="#F7760E" fill="none" stroke-width="20"></path></g><g transform="translate(24 142)"><path d="M7.5 -2.1C8.7 1.3 8 5.7 5.4 7.5C2.9 9.4 -1.5 8.7 -4.4 6.5C-7.4 4.3 -8.9 0.5 -7.9 -2.6C-6.9 -5.6 -3.5 -7.9 -0.2 -7.8C3.1 -7.8 6.3 -5.4 7.5 -2.1Z" stroke="#F7760E" fill="none" stroke-width="20"></path></g><g transform="translate(207 502)"><path d="M9.9 -2.9C11.3 1 9.7 6.1 6.3 8.5C2.9 10.9 -2.3 10.6 -5.8 8.1C-9.2 5.5 -11 0.7 -9.7 -3C-8.5 -6.7 -4.2 -9.2 0 -9.2C4.3 -9.2 8.6 -6.7 9.9 -2.9Z" stroke="#F7760E" fill="none" stroke-width="20"></path></g><g transform="translate(899 458)"><path d="M9 -2.4C10.3 1.2 9.1 6.1 6.1 8.3C3 10.5 -2 10 -5.1 7.6C-8.2 5.2 -9.6 0.8 -8.4 -2.5C-7.2 -5.9 -3.6 -8.2 0.1 -8.3C3.8 -8.3 7.6 -6 9 -2.4Z" stroke="#F7760E" fill="none" stroke-width="20"></path></g><g transform="translate(432 301)"><path d="M8.7 -3.2C9.7 0.3 7.9 4.3 5 6.3C2 8.3 -2 8.3 -4.6 6.3C-7.3 4.4 -8.5 0.6 -7.5 -2.9C-6.5 -6.4 -3.3 -9.6 0.3 -9.7C3.8 -9.8 7.7 -6.8 8.7 -3.2Z" stroke="#F7760E" fill="none" stroke-width="20"></path></g><g transform="translate(750 518)"><path d="M9.6 -3.4C10.8 0.4 8.9 5 5.6 7.2C2.4 9.4 -2.1 9.3 -5.2 7.1C-8.3 4.8 -10 0.5 -8.9 -3.3C-7.8 -7.1 -3.9 -10.3 0.2 -10.4C4.2 -10.4 8.5 -7.3 9.6 -3.4Z" stroke="#F7760E" fill="none" stroke-width="20"></path></g><g transform="translate(135 327)"><path d="M8.9 -2.9C10 0.7 8.5 5.1 5.4 7.4C2.2 9.7 -2.5 9.8 -5.4 7.7C-8.2 5.5 -9.2 1.1 -8 -2.5C-6.8 -6.2 -3.4 -9 0.2 -9.1C3.9 -9.2 7.7 -6.5 8.9 -2.9Z" stroke="#F7760E" fill="none" stroke-width="20"></path></g><g transform="translate(83 573)"><path d="M8.4 -2.2C9.8 1.4 9 6.3 6.1 8.3C3.3 10.4 -1.5 9.5 -4.6 7.1C-7.7 4.7 -9.1 0.6 -8 -2.6C-6.9 -5.8 -3.5 -8.3 0 -8.3C3.5 -8.3 7.1 -5.9 8.4 -2.2Z" stroke="#F7760E" fill="none" stroke-width="20"></path></g><g transform="translate(883 297)"><path d="M7.5 -2.3C8.6 1 7.7 5.1 5 7.1C2.3 9.1 -2.1 9 -5 6.9C-8 4.8 -9.5 0.6 -8.4 -2.6C-7.3 -5.8 -3.7 -8 -0.2 -7.9C3.2 -7.8 6.4 -5.5 7.5 -2.3Z" stroke="#F7760E" fill="none" stroke-width="20"></path></g><g transform="translate(95 338)"><path d="M8.7 -3.2C9.8 0.5 8.2 4.8 5.2 6.8C2.3 8.9 -2 8.8 -5 6.6C-8.1 4.5 -9.9 0.4 -8.8 -3.3C-7.8 -7 -3.9 -10.3 0 -10.3C3.8 -10.3 7.6 -7 8.7 -3.2Z" stroke="#F7760E" fill="none" stroke-width="20"></path></g><g transform="translate(243 543)"><path d="M8.8 -3C9.8 0.2 7.9 4.3 4.9 6.4C1.8 8.6 -2.4 8.9 -5 7C-7.5 5.1 -8.4 1 -7.3 -2.3C-6.2 -5.7 -3.1 -8.4 0.4 -8.5C3.9 -8.7 7.8 -6.2 8.8 -3Z" stroke="#F7760E" fill="none" stroke-width="20"></path></g><g transform="translate(856 434)"><path d="M9.2 -3C10.5 1 9.1 5.8 6 8C2.9 10.2 -1.9 9.7 -4.9 7.4C-7.8 5.1 -8.9 0.9 -7.8 -2.8C-6.7 -6.6 -3.3 -9.9 0.3 -10C3.9 -10.1 7.9 -7 9.2 -3Z" stroke="#F7760E" fill="none" stroke-width="20"></path></g><g transform="translate(404 409)"><path d="M8.7 -2.7C10 1.3 9.1 6.2 6.1 8.4C3.1 10.5 -1.8 9.9 -5.2 7.4C-8.5 4.9 -10.3 0.5 -9.2 -3.2C-8 -7 -4 -10.1 -0.2 -10C3.7 -9.9 7.3 -6.8 8.7 -2.7Z" stroke="#F7760E" fill="none" stroke-width="20"></path></g><g transform="translate(581 58)"><path d="M8.3 -2.8C9.6 1 8.4 5.5 5.3 7.9C2.2 10.3 -2.9 10.6 -6.1 8.3C-9.4 6 -10.8 1 -9.4 -2.9C-8.1 -6.8 -4.1 -9.7 -0.2 -9.7C3.6 -9.6 7.1 -6.5 8.3 -2.8Z" stroke="#F7760E" fill="none" stroke-width="20"></path></g><g transform="translate(485 220)"><path d="M7.7 -2.3C8.8 0.9 7.7 4.9 4.9 7C2.2 9 -2.2 9 -5.2 6.9C-8.1 4.8 -9.7 0.6 -8.6 -2.6C-7.5 -5.8 -3.8 -7.9 -0.2 -7.8C3.3 -7.7 6.6 -5.5 7.7 -2.3Z" stroke="#F7760E" fill="none" stroke-width="20"></path></g><g transform="translate(532 436)"><path d="M9.2 -2.6C10.5 1.1 9.2 6 6.1 8.2C3 10.4 -1.9 10 -5.5 7.4C-9 4.9 -11.1 0.3 -9.9 -3.1C-8.8 -6.5 -4.4 -8.8 -0.2 -8.7C4 -8.7 7.9 -6.3 9.2 -2.6Z" stroke="#F7760E" fill="none" stroke-width="20"></path></g><g transform="translate(160 465)"><path d="M9.5 -2.9C10.7 0.5 8.8 5 5.4 7.5C2.1 9.9 -2.8 10.2 -6 8C-9.2 5.7 -10.8 0.9 -9.5 -2.7C-8.2 -6.2 -4.1 -8.3 0 -8.4C4.2 -8.4 8.4 -6.2 9.5 -2.9Z" stroke="#F7760E" fill="none" stroke-width="20"></path></g><g transform="translate(622 447)"><path d="M8.8 -2.8C10.1 1.3 9.1 6.3 6 8.6C2.9 11 -2.4 10.8 -5.8 8.3C-9.2 5.7 -10.8 0.8 -9.5 -3.2C-8.2 -7.2 -4.1 -10.5 -0.2 -10.4C3.7 -10.3 7.4 -7 8.8 -2.8Z" stroke="#F7760E" fill="none" stroke-width="20"></path></g><g transform="translate(495 252)"><path d="M7.7 -2.2C8.9 1.3 8.2 5.8 5.5 7.8C2.8 9.8 -1.8 9.4 -4.8 7.1C-7.7 4.9 -8.9 0.8 -7.8 -2.5C-6.8 -5.8 -3.4 -8.4 -0.1 -8.4C3.2 -8.3 6.4 -5.7 7.7 -2.2Z" stroke="#F7760E" fill="none" stroke-width="20"></path></g><g transform="translate(764 80)"><path d="M9.1 -2.8C10.3 0.9 8.9 5.6 6 7.6C3 9.6 -1.5 8.9 -4.5 6.6C-7.6 4.3 -9.2 0.4 -8.2 -2.9C-7.2 -6.2 -3.6 -9 0.2 -9C3.9 -9.1 7.8 -6.4 9.1 -2.8Z" stroke="#F7760E" fill="none" stroke-width="20"></path></g><g transform="translate(881 590)"><path d="M9.7 -3.4C10.8 0.2 8.7 4.7 5.4 6.9C2.2 9.1 -2.2 9.1 -5.3 6.9C-8.4 4.8 -10.2 0.5 -9.1 -3.1C-8 -6.7 -4 -9.6 0.2 -9.7C4.3 -9.7 8.6 -7 9.7 -3.4Z" stroke="#F7760E" fill="none" stroke-width="20"></path></g><g transform="translate(210 236)"><path d="M9.2 -2.9C10.4 0.8 8.9 5.5 5.8 7.7C2.7 9.9 -2 9.5 -5.2 7.2C-8.4 4.8 -10.2 0.5 -9.1 -3.1C-8 -6.7 -4 -9.4 0 -9.4C4 -9.4 8 -6.7 9.2 -2.9Z" stroke="#F7760E" fill="none" stroke-width="20"></path></g><g transform="translate(820 10)"><path d="M8 -2.9C9 0.5 7.5 4.3 4.5 6.5C1.6 8.7 -2.7 9.2 -5.3 7.3C-7.9 5.4 -8.8 1.1 -7.7 -2.5C-6.5 -6.1 -3.2 -9.1 0.1 -9.1C3.5 -9.2 7 -6.3 8 -2.9Z" stroke="#F7760E" fill="none" stroke-width="20"></path></g><g transform="translate(848 315)"><path d="M8.2 -2.8C9.5 1.3 8.6 6 5.7 8.2C2.8 10.4 -2.2 10.1 -5.2 7.8C-8.2 5.4 -9.3 1 -8.1 -2.9C-6.9 -6.8 -3.5 -10.2 0 -10.2C3.5 -10.2 6.9 -6.8 8.2 -2.8Z" stroke="#F7760E" fill="none" stroke-width="20"></path></g><g transform="translate(302 500)"><path d="M8.3 -2.9C9.3 0.5 7.7 4.5 4.7 6.8C1.6 9.1 -3 9.7 -5.9 7.7C-8.8 5.6 -10.2 1 -8.9 -2.7C-7.7 -6.4 -3.8 -9 -0.1 -9C3.6 -8.9 7.3 -6.2 8.3 -2.9Z" stroke="#F7760E" fill="none" stroke-width="20"></path></g><g transform="translate(153 212)"><path d="M9 -2.9C10.1 0.4 8.2 4.6 5.2 6.8C2.1 8.9 -2.2 9 -5.3 6.9C-8.3 4.7 -10.1 0.5 -9 -2.8C-7.9 -6.1 -3.9 -8.3 0 -8.3C4 -8.4 7.9 -6.1 9 -2.9Z" stroke="#F7760E" fill="none" stroke-width="20"></path></g><g transform="translate(670 573)"><path d="M8.8 -2.6C9.9 0.8 8.6 5.3 5.4 7.6C2.3 9.9 -2.5 10 -5.5 7.8C-8.6 5.5 -9.8 1 -8.6 -2.5C-7.3 -5.9 -3.7 -8.3 0.1 -8.3C3.8 -8.3 7.6 -6 8.8 -2.6Z" stroke="#F7760E" fill="none" stroke-width="20"></path></g><g transform="translate(793 551)"><path d="M10.1 -3C11.3 0.5 9.3 5.2 5.9 7.5C2.5 9.8 -2.2 9.7 -5.2 7.4C-8.2 5.2 -9.5 0.8 -8.4 -2.6C-7.2 -6 -3.6 -8.4 0.4 -8.5C4.4 -8.7 8.8 -6.5 10.1 -3Z" stroke="#F7760E" fill="none" stroke-width="20"></path></g><g transform="translate(745 584)"><path d="M7.6 -2.5C8.8 1.1 7.9 5.3 5.2 7.2C2.6 9.1 -1.7 8.7 -4.6 6.5C-7.5 4.4 -8.9 0.5 -7.9 -2.9C-6.9 -6.2 -3.5 -9.1 -0.1 -9C3.2 -9 6.5 -6.1 7.6 -2.5Z" stroke="#F7760E" fill="none" stroke-width="20"></path></g><g transform="translate(513 362)"><path d="M10 -2.7C11.4 0.9 9.8 6.1 6.3 8.6C2.8 11.1 -2.6 11 -5.7 8.6C-8.7 6.2 -9.5 1.4 -8.2 -2.2C-6.9 -5.8 -3.4 -8.3 0.5 -8.5C4.3 -8.6 8.7 -6.4 10 -2.7Z" stroke="#F7760E" fill="none" stroke-width="20"></path></g><g transform="translate(90 87)"><path d="M8.8 -3.2C9.8 0.1 7.8 4.1 4.7 6.2C1.7 8.4 -2.5 8.8 -5.3 6.8C-8.2 4.9 -9.8 0.6 -8.7 -3C-7.6 -6.5 -3.8 -9.3 0.1 -9.3C3.9 -9.4 7.8 -6.6 8.8 -3.2Z" stroke="#F7760E" fill="none" stroke-width="20"></path></g><g transform="translate(631 209)"><path d="M7.9 -2.3C9.2 1.2 8.3 5.7 5.5 7.8C2.6 9.9 -2.1 9.6 -4.9 7.4C-7.7 5.2 -8.6 1 -7.5 -2.4C-6.4 -5.7 -3.2 -8.4 0.1 -8.4C3.4 -8.5 6.7 -5.9 7.9 -2.3Z" stroke="#F7760E" fill="none" stroke-width="20"></path></g><g transform="translate(822 139)"><path d="M8.2 -2.6C9.5 1.3 8.6 5.9 5.8 8C3 10.1 -1.8 9.5 -4.8 7.2C-7.9 4.8 -9.3 0.7 -8.2 -2.9C-7.1 -6.5 -3.6 -9.5 0 -9.5C3.5 -9.5 6.9 -6.4 8.2 -2.6Z" stroke="#F7760E" fill="none" stroke-width="20"></path></g><g transform="translate(803 67)"><path d="M9.1 -2.9C10.3 0.7 8.7 5.2 5.6 7.3C2.5 9.5 -2 9.3 -5 7.1C-8 4.8 -9.5 0.6 -8.4 -2.8C-7.3 -6.2 -3.6 -8.9 0.2 -9C4 -9 8 -6.5 9.1 -2.9Z" stroke="#F7760E" fill="none" stroke-width="20"></path></g><g transform="translate(793 483)"><path d="M9.7 -3.4C10.8 0.1 8.5 4.4 5.3 6.5C2.1 8.6 -2.1 8.6 -4.9 6.6C-7.8 4.5 -9.4 0.5 -8.4 -3C-7.3 -6.5 -3.7 -9.4 0.3 -9.5C4.3 -9.6 8.7 -6.9 9.7 -3.4Z" stroke="#F7760E" fill="none" stroke-width="20"></path></g><g transform="translate(393 135)"><path d="M8.8 -2.8C10 0.8 8.6 5.3 5.6 7.4C2.6 9.6 -2 9.3 -4.9 7.1C-7.9 4.9 -9.3 0.7 -8.2 -2.8C-7.1 -6.3 -3.5 -9.2 0.1 -9.2C3.8 -9.3 7.6 -6.5 8.8 -2.8Z" stroke="#F7760E" fill="none" stroke-width="20"></path></g><g transform="translate(214 267)"><path d="M7.2 -2.4C8.1 0.6 6.9 4.3 4.2 6.5C1.4 8.6 -3 9.4 -5.7 7.5C-8.4 5.6 -9.4 1.1 -8.2 -2.2C-7 -5.6 -3.5 -7.8 -0.2 -7.7C3.1 -7.7 6.2 -5.3 7.2 -2.4Z" stroke="#F7760E" fill="none" stroke-width="20"></path></g><g transform="translate(464 41)"><path d="M9 -2.8C10.1 0.3 8.2 4.6 5.1 6.9C1.9 9.2 -2.6 9.5 -5.7 7.4C-8.8 5.3 -10.5 0.7 -9.3 -2.7C-8.1 -6.1 -4 -8.2 0 -8.2C4 -8.2 8 -6 9 -2.8Z" stroke="#F7760E" fill="none" stroke-width="20"></path></g><g transform="translate(844 70)"><path d="M8 -2.9C9 0.5 7.5 4.5 4.7 6.5C1.9 8.5 -2.3 8.7 -5.1 6.7C-8 4.7 -9.6 0.5 -8.5 -3C-7.5 -6.5 -3.7 -9.4 -0.1 -9.4C3.5 -9.3 6.9 -6.4 8 -2.9Z" stroke="#F7760E" fill="none" stroke-width="20"></path></g><g transform="translate(406 346)"><path d="M8.2 -2.8C9.4 0.8 8.1 5.1 5.2 7.2C2.4 9.3 -2.1 9.2 -5.2 7C-8.2 4.8 -9.8 0.5 -8.7 -3C-7.6 -6.5 -3.8 -9.3 -0.1 -9.3C3.5 -9.2 7.1 -6.3 8.2 -2.8Z" stroke="#F7760E" fill="none" stroke-width="20"></path></g><g transform="translate(779 370)"><path d="M9.8 -3.6C11 0.3 8.9 4.9 5.4 7.5C1.9 10.1 -3.1 10.6 -6.3 8.4C-9.6 6.1 -11 1 -9.7 -3.2C-8.3 -7.4 -4.2 -10.7 0.1 -10.7C4.3 -10.7 8.7 -7.5 9.8 -3.6Z" stroke="#F7760E" fill="none" stroke-width="20"></path></g><g transform="translate(881 94)"><path d="M7.9 -2.6C9 0.7 7.7 4.8 4.6 7.1C1.6 9.5 -3.2 10.3 -6 8.2C-8.9 6.2 -9.7 1.4 -8.4 -2.3C-7.1 -5.9 -3.5 -8.4 -0.1 -8.3C3.4 -8.3 6.8 -5.8 7.9 -2.6Z" stroke="#F7760E" fill="none" stroke-width="20"></path></g><g transform="translate(640 174)"><path d="M8.6 -3C9.6 0.5 8 4.6 4.8 7C1.6 9.4 -3.2 10.1 -6.4 8C-9.7 5.8 -11.4 0.8 -10.1 -3.1C-8.8 -7 -4.4 -9.7 -0.3 -9.6C3.8 -9.5 7.5 -6.6 8.6 -3Z" stroke="#F7760E" fill="none" stroke-width="20"></path></g><g transform="translate(734 58)"><path d="M8.8 -2.6C9.9 0.6 8.3 4.9 5.3 7.1C2.3 9.2 -2.1 9.1 -5.1 7C-8 4.8 -9.5 0.6 -8.4 -2.5C-7.3 -5.7 -3.7 -7.8 0.1 -7.9C3.8 -7.9 7.6 -5.8 8.8 -2.6Z" stroke="#F7760E" fill="none" stroke-width="20"></path></g><g transform="translate(676 377)"><path d="M9 -2.7C10.1 0.5 8.4 4.8 5.2 7.1C2 9.4 -2.5 9.6 -5.3 7.5C-8 5.5 -8.9 1.2 -7.7 -2.2C-6.5 -5.5 -3.3 -7.9 0.3 -8C4 -8.1 7.9 -6 9 -2.7Z" stroke="#F7760E" fill="none" stroke-width="20"></path></g><g transform="translate(404 496)"><path d="M8.8 -2.8C10.1 1 8.8 5.7 5.7 7.9C2.7 10.2 -2.2 9.9 -5.2 7.6C-8.3 5.3 -9.5 0.9 -8.3 -2.8C-7.1 -6.4 -3.6 -9.4 0.1 -9.4C3.8 -9.5 7.6 -6.6 8.8 -2.8Z" stroke="#F7760E" fill="none" stroke-width="20"></path></g><g transform="translate(444 391)"><path d="M7.6 -2.5C8.8 1.1 7.9 5.4 5.3 7.3C2.6 9.2 -1.7 8.8 -4.4 6.7C-7.2 4.6 -8.3 0.8 -7.2 -2.6C-6.2 -6 -3.1 -9 0.1 -9.1C3.2 -9.1 6.5 -6.1 7.6 -2.5Z" stroke="#F7760E" fill="none" stroke-width="20"></path></g><g transform="translate(702 357)"><path d="M9.3 -2.8C10.5 0.7 8.9 5.4 5.9 7.5C2.8 9.5 -1.7 9 -4.6 6.8C-7.5 4.6 -8.8 0.6 -7.8 -2.7C-6.8 -6 -3.4 -8.7 0.3 -8.8C4 -8.9 8 -6.4 9.3 -2.8Z" stroke="#F7760E" fill="none" stroke-width="20"></path></g><g transform="translate(547 299)"><path d="M8.1 -2.4C9.3 1 8.2 5.5 5.3 7.6C2.4 9.8 -2.3 9.8 -5.3 7.6C-8.2 5.4 -9.3 1 -8.1 -2.5C-7 -5.9 -3.5 -8.5 0 -8.5C3.4 -8.5 6.9 -5.9 8.1 -2.4Z" stroke="#F7760E" fill="none" stroke-width="20"></path></g><g transform="translate(630 491)"><path d="M8.5 -2.9C9.5 0.5 8 4.6 5.1 6.6C2.3 8.5 -1.8 8.3 -4.4 6.3C-7.1 4.3 -8.3 0.6 -7.4 -2.7C-6.4 -6 -3.2 -8.9 0.3 -9C3.7 -9.1 7.4 -6.3 8.5 -2.9Z" stroke="#F7760E" fill="none" stroke-width="20"></path></g><g transform="translate(331 29)"><path d="M9.9 -3.3C11.1 0.7 9.3 5.5 6.1 7.8C2.8 10.1 -2 9.8 -5.2 7.4C-8.4 5 -10 0.6 -8.8 -3.2C-7.7 -7 -3.8 -10.3 0.2 -10.4C4.3 -10.5 8.6 -7.3 9.9 -3.3Z" stroke="#F7760E" fill="none" stroke-width="20"></path></g><g transform="translate(177 511)"><path d="M7.5 -2.4C8.7 1.4 8.1 5.8 5.4 7.9C2.7 10 -2.1 9.7 -5.1 7.4C-8.1 5.1 -9.4 0.8 -8.3 -2.9C-7.2 -6.6 -3.6 -9.7 -0.2 -9.6C3.1 -9.5 6.2 -6.3 7.5 -2.4Z" stroke="#F7760E" fill="none" stroke-width="20"></path></g><g transform="translate(266 263)"><path d="M8 -2.7C9 0.6 7.7 4.6 4.9 6.6C2.2 8.5 -1.8 8.3 -4.5 6.3C-7.2 4.3 -8.5 0.6 -7.6 -2.7C-6.6 -5.9 -3.3 -8.5 0.1 -8.6C3.5 -8.6 6.9 -6 8 -2.7Z" stroke="#F7760E" fill="none" stroke-width="20"></path></g><g transform="translate(92 124)"><path d="M9.5 -2.7C10.9 1.1 9.6 6.2 6.3 8.6C3 10.9 -2.1 10.5 -5.6 7.9C-9 5.4 -10.7 0.7 -9.5 -2.9C-8.2 -6.5 -4.1 -9.1 0 -9.1C4.1 -9 8.1 -6.5 9.5 -2.7Z" stroke="#F7760E" fill="none" stroke-width="20"></path></g><g transform="translate(853 245)"><path d="M10.1 -3C11.3 0.5 9.3 5.4 5.8 7.9C2.2 10.5 -3 10.9 -6.1 8.6C-9.3 6.2 -10.5 1.2 -9.1 -2.5C-7.8 -6.3 -3.9 -8.7 0.3 -8.8C4.4 -8.9 8.8 -6.6 10.1 -3Z" stroke="#F7760E" fill="none" stroke-width="20"></path></g><g transform="translate(391 442)"><path d="M7.8 -2.7C9 0.9 7.8 5 4.9 7.2C2 9.5 -2.7 9.8 -5.7 7.6C-8.8 5.5 -10.2 0.8 -9 -2.9C-7.8 -6.7 -3.9 -9.6 -0.3 -9.5C3.4 -9.4 6.7 -6.4 7.8 -2.7Z" stroke="#F7760E" fill="none" stroke-width="20"></path></g><g transform="translate(290 96)"><path d="M9 -2.6C10.2 0.7 8.7 5.3 5.7 7.4C2.7 9.4 -1.8 9 -4.6 6.8C-7.5 4.7 -8.7 0.7 -7.7 -2.4C-6.6 -5.6 -3.3 -8 0.3 -8.1C3.9 -8.2 7.8 -6 9 -2.6Z" stroke="#F7760E" fill="none" stroke-width="20"></path></g><g transform="translate(519 542)"><path d="M8.2 -2.8C9.4 0.9 8.1 5.2 5.3 7.2C2.4 9.3 -2 9.1 -4.9 6.9C-7.9 4.8 -9.2 0.7 -8.2 -2.9C-7.1 -6.5 -3.5 -9.5 0 -9.5C3.5 -9.5 7.1 -6.5 8.2 -2.8Z" stroke="#F7760E" fill="none" stroke-width="20"></path></g><g transform="translate(350 306)"><path d="M9 -2.9C10.2 0.9 8.9 5.6 5.8 7.8C2.8 9.9 -1.8 9.4 -4.9 7.1C-7.9 4.8 -9.2 0.7 -8.1 -2.9C-7.1 -6.5 -3.5 -9.6 0.2 -9.6C3.9 -9.7 7.7 -6.7 9 -2.9Z" stroke="#F7760E" fill="none" stroke-width="20"></path></g><g transform="translate(866 47)"><path d="M9.7 -2.9C11 0.9 9.4 5.9 6.3 8C3.1 10.2 -1.6 9.5 -5 7C-8.3 4.6 -10.2 0.3 -9.2 -3.1C-8.1 -6.6 -4 -9.2 0.1 -9.3C4.2 -9.3 8.4 -6.7 9.7 -2.9Z" stroke="#F7760E" fill="none" stroke-width="20"></path></g><g transform="translate(475 169)"><path d="M7.9 -2.7C8.9 0.7 7.6 4.7 4.7 6.9C1.8 9.1 -2.7 9.6 -5.6 7.5C-8.4 5.5 -9.7 1 -8.5 -2.7C-7.2 -6.3 -3.6 -9.1 -0.1 -9.1C3.4 -9 6.8 -6.2 7.9 -2.7Z" stroke="#F7760E" fill="none" stroke-width="20"></path></g><g transform="translate(25 70)"><path d="M9.2 -3C10.5 1.1 9.3 6.1 5.9 8.6C2.6 11.1 -2.7 11.1 -5.9 8.7C-9.1 6.2 -10.1 1.3 -8.8 -2.8C-7.4 -7 -3.7 -10.4 0.1 -10.4C3.9 -10.4 7.9 -7.1 9.2 -3Z" stroke="#F7760E" fill="none" stroke-width="20"></path></g><g transform="translate(701 275)"><path d="M8.3 -2.8C9.5 1.1 8.4 5.6 5.4 7.9C2.3 10.3 -2.7 10.5 -5.9 8.1C-9.2 5.8 -10.7 0.9 -9.4 -3.1C-8.1 -7 -4 -10.1 -0.3 -10C3.5 -10 7 -6.7 8.3 -2.8Z" stroke="#F7760E" fill="none" stroke-width="20"></path></g><g transform="translate(705 456)"><path d="M8.5 -2.9C9.7 1 8.5 5.5 5.5 7.7C2.5 10 -2.3 9.9 -5.6 7.5C-8.8 5.2 -10.6 0.6 -9.4 -3.2C-8.2 -7 -4.1 -10 -0.2 -10C3.6 -9.9 7.2 -6.7 8.5 -2.9Z" stroke="#F7760E" fill="none" stroke-width="20"></path></g><g transform="translate(287 132)"><path d="M8.8 -2.6C10 0.8 8.6 5.4 5.6 7.5C2.7 9.5 -1.9 9.2 -4.7 7C-7.6 4.8 -8.8 0.8 -7.7 -2.5C-6.6 -5.8 -3.3 -8.3 0.2 -8.4C3.8 -8.4 7.6 -6.1 8.8 -2.6Z" stroke="#F7760E" fill="none" stroke-width="20"></path></g><g transform="translate(774 326)"><path d="M9.7 -2.9C11 0.8 9.3 5.6 6 8C2.7 10.3 -2.3 10.2 -5.7 7.7C-9 5.3 -10.9 0.6 -9.6 -3C-8.4 -6.5 -4.2 -8.9 0 -8.9C4.2 -8.9 8.5 -6.5 9.7 -2.9Z" stroke="#F7760E" fill="none" stroke-width="20"></path></g><g transform="translate(595 492)"><path d="M9.1 -3C10.2 0.4 8.4 4.6 5.1 7C1.8 9.4 -2.8 9.8 -5.5 7.8C-8.2 5.8 -8.9 1.3 -7.7 -2.2C-6.5 -5.8 -3.2 -8.4 0.4 -8.5C4 -8.6 8.1 -6.3 9.1 -3Z" stroke="#F7760E" fill="none" stroke-width="20"></path></g><g transform="translate(470 409)"><path d="M8.3 -2.4C9.5 1.1 8.4 5.6 5.5 7.7C2.6 9.9 -2.1 9.6 -5.2 7.4C-8.2 5.1 -9.6 0.8 -8.4 -2.6C-7.3 -6 -3.6 -8.5 -0.1 -8.5C3.5 -8.5 7 -6 8.3 -2.4Z" stroke="#F7760E" fill="none" stroke-width="20"></path></g><g transform="translate(487 476)"><path d="M7.6 -2.2C8.8 1.1 7.9 5.3 5.1 7.5C2.3 9.6 -2.4 9.6 -5.6 7.4C-8.8 5.1 -10.5 0.6 -9.4 -2.8C-8.2 -6.1 -4.1 -8.3 -0.4 -8.2C3.2 -8 6.4 -5.6 7.6 -2.2Z" stroke="#F7760E" fill="none" stroke-width="20"></path></g><g transform="translate(249 409)"><path d="M9.3 -2.9C10.4 0.5 8.6 4.9 5.5 7C2.5 9.1 -1.9 8.8 -5 6.6C-8.1 4.4 -9.9 0.3 -8.9 -2.9C-7.9 -6.2 -3.9 -8.5 0.1 -8.5C4.1 -8.5 8.2 -6.3 9.3 -2.9Z" stroke="#F7760E" fill="none" stroke-width="20"></path></g><g transform="translate(434 57)"><path d="M7.8 -2.5C8.8 0.7 7.6 4.7 4.6 7.1C1.6 9.4 -3.1 10.1 -6.3 8C-9.4 5.9 -10.9 0.9 -9.5 -2.7C-8.2 -6.3 -4.1 -8.5 -0.4 -8.4C3.4 -8.3 6.7 -5.8 7.8 -2.5Z" stroke="#F7760E" fill="none" stroke-width="20"></path></g><g transform="translate(630 62)"><path d="M9.4 -2.9C10.8 1.1 9.5 6.2 6.3 8.5C3.2 10.7 -1.9 10.1 -5.4 7.5C-8.9 4.9 -11 0.3 -9.8 -3.4C-8.7 -7.2 -4.3 -10.2 -0.2 -10.1C4 -10.1 8 -7 9.4 -2.9Z" stroke="#F7760E" fill="none" stroke-width="20"></path></g><g transform="translate(814 203)"><path d="M7.9 -2.5C9.1 1.2 8.2 5.6 5.5 7.6C2.8 9.5 -1.6 9 -4.8 6.7C-7.9 4.3 -9.8 0.3 -8.7 -3.2C-7.7 -6.6 -3.9 -9.5 -0.3 -9.4C3.3 -9.3 6.7 -6.3 7.9 -2.5Z" stroke="#F7760E" fill="none" stroke-width="20"></path></g><g transform="translate(388 293)"><path d="M8.8 -3.1C9.9 0.5 8.3 4.8 5.2 7C2.2 9.1 -2.2 9.1 -5.1 7C-8 5 -9.3 0.8 -8.2 -2.9C-7.1 -6.5 -3.5 -9.6 0.2 -9.7C3.9 -9.7 7.7 -6.7 8.8 -3.1Z" stroke="#F7760E" fill="none" stroke-width="20"></path></g><g transform="translate(592 406)"><path d="M8.6 -2.9C9.7 0.6 8.1 4.8 5.3 6.8C2.4 8.7 -1.8 8.5 -4.7 6.3C-7.7 4.2 -9.5 0.3 -8.5 -3C-7.5 -6.3 -3.8 -8.9 0 -8.9C3.8 -8.9 7.5 -6.3 8.6 -2.9Z" stroke="#F7760E" fill="none" stroke-width="20"></path></g><g transform="translate(855 519)"><path d="M10 -3.3C11.1 0.2 8.8 4.6 5.5 6.9C2.2 9.2 -2.3 9.2 -5.1 7.2C-7.9 5.1 -9.1 0.9 -7.9 -2.6C-6.8 -6.1 -3.4 -9 0.5 -9.1C4.4 -9.3 8.9 -6.8 10 -3.3Z" stroke="#F7760E" fill="none" stroke-width="20"></path></g><g transform="translate(20 488)"><path d="M8.3 -2.7C9.5 1 8.3 5.4 5.5 7.3C2.8 9.2 -1.5 8.7 -4.5 6.4C-7.5 4.2 -9.2 0.3 -8.2 -3C-7.3 -6.3 -3.6 -9.1 0 -9.1C3.6 -9.1 7.1 -6.3 8.3 -2.7Z" stroke="#F7760E" fill="none" stroke-width="20"></path></g><g transform="translate(186 154)"><path d="M9.8 -3.1C11 0.5 9.1 5.2 5.8 7.6C2.4 9.9 -2.4 9.9 -5.5 7.7C-8.7 5.4 -10.1 0.8 -8.9 -2.8C-7.7 -6.5 -3.9 -9.2 0.2 -9.2C4.3 -9.3 8.6 -6.7 9.8 -3.1Z" stroke="#F7760E" fill="none" stroke-width="20"></path></g><g transform="translate(188 370)"><path d="M8.1 -2.9C9.2 0.7 7.9 4.9 5.1 6.8C2.4 8.8 -1.8 8.5 -4.5 6.5C-7.2 4.4 -8.4 0.7 -7.4 -2.8C-6.4 -6.3 -3.2 -9.6 0.2 -9.6C3.5 -9.7 7 -6.5 8.1 -2.9Z" stroke="#F7760E" fill="none" stroke-width="20"></path></g><g transform="translate(564 251)"><path d="M9 -2.9C10 0.3 8.1 4.4 5 6.6C1.9 8.8 -2.4 9 -5.3 7C-8.2 5 -9.7 0.7 -8.6 -2.7C-7.5 -6 -3.7 -8.3 0.1 -8.4C4 -8.4 7.9 -6.1 9 -2.9Z" stroke="#F7760E" fill="none" stroke-width="20"></path></g><g transform="translate(256 105)"><path d="M8.4 -2.4C9.7 1.2 8.7 5.9 5.6 8.3C2.5 10.7 -2.7 10.7 -6.1 8.3C-9.6 5.8 -11.3 0.8 -10 -2.9C-8.7 -6.5 -4.4 -8.8 -0.4 -8.6C3.5 -8.5 7.1 -6 8.4 -2.4Z" stroke="#F7760E" fill="none" stroke-width="20"></path></g><g transform="translate(531 99)"><path d="M7.9 -2.5C9.1 1.1 8.1 5.5 5.3 7.5C2.6 9.5 -2 9.3 -5.3 6.9C-8.6 4.6 -10.6 0.3 -9.5 -3.2C-8.4 -6.7 -4.2 -9.3 -0.4 -9.2C3.3 -9.1 6.7 -6.2 7.9 -2.5Z" stroke="#F7760E" fill="none" stroke-width="20"></path></g><g transform="translate(143 284)"><path d="M8.5 -2.4C9.8 1.4 8.9 6.2 6 8.3C3.1 10.4 -1.7 9.7 -5.1 7.3C-8.4 4.8 -10.2 0.5 -9.1 -3C-8 -6.4 -4 -8.9 -0.2 -8.8C3.6 -8.7 7.1 -6.1 8.5 -2.4Z" stroke="#F7760E" fill="none" stroke-width="20"></path></g><g transform="translate(791 429)"><path d="M7.5 -2.3C8.6 0.9 7.6 5 4.9 7.1C2.1 9.1 -2.3 9.2 -5.2 7.1C-8.1 5 -9.6 0.7 -8.5 -2.6C-7.3 -5.9 -3.7 -8.2 -0.2 -8.2C3.2 -8.1 6.4 -5.6 7.5 -2.3Z" stroke="#F7760E" fill="none" stroke-width="20"></path></g><g transform="translate(817 572)"><path d="M7.7 -2.4C8.9 1.3 8.1 5.7 5.5 7.6C2.8 9.5 -1.6 9 -4.4 6.8C-7.2 4.6 -8.4 0.7 -7.4 -2.7C-6.4 -6.1 -3.2 -9.1 0 -9.1C3.2 -9.1 6.5 -6.1 7.7 -2.4Z" stroke="#F7760E" fill="none" stroke-width="20"></path></g><g transform="translate(11 221)"><path d="M7.2 -2.8C8.2 0.7 7 4.4 4.4 6.3C1.8 8.3 -2.3 8.5 -5 6.6C-7.7 4.7 -9.1 0.6 -8.1 -3C-7 -6.6 -3.5 -9.8 -0.2 -9.7C3.1 -9.7 6.2 -6.3 7.2 -2.8Z" stroke="#F7760E" fill="none" stroke-width="20"></path></g><g transform="translate(644 396)"><path d="M8.3 -2.3C9.6 1.3 8.7 6 5.8 8C3 10.1 -1.7 9.5 -4.8 7.1C-7.8 4.8 -9.2 0.7 -8.1 -2.7C-7 -6 -3.5 -8.5 0 -8.5C3.5 -8.5 7 -6 8.3 -2.3Z" stroke="#F7760E" fill="none" stroke-width="20"></path></g><g transform="translate(468 565)"><path d="M9.1 -3.2C10.1 0.1 8 4.1 5 6.1C2 8.1 -1.9 8.1 -5 6.1C-8 4 -10.1 0 -9.2 -3.2C-8.2 -6.4 -4.1 -8.9 0 -8.8C4 -8.8 8.1 -6.4 9.1 -3.2Z" stroke="#F7760E" fill="none" stroke-width="20"></path></g><g transform="translate(337 512)"><path d="M8.4 -2.8C9.4 0.3 7.6 4.1 4.6 6.4C1.5 8.7 -2.9 9.3 -5.7 7.4C-8.5 5.4 -9.8 0.9 -8.6 -2.5C-7.4 -5.9 -3.7 -8.2 0 -8.2C3.7 -8.2 7.5 -5.9 8.4 -2.8Z" stroke="#F7760E" fill="none" stroke-width="20"></path></g><g transform="translate(586 459)"><path d="M9.7 -3.2C11 1 9.5 6 6.1 8.5C2.6 11.1 -2.8 11.1 -6.3 8.6C-9.8 6.1 -11.4 0.9 -10.1 -3.3C-8.7 -7.4 -4.3 -10.6 -0.1 -10.6C4.2 -10.5 8.4 -7.3 9.7 -3.2Z" stroke="#F7760E" fill="none" stroke-width="20"></path></g><g transform="translate(231 26)"><path d="M9.1 -3.1C10.3 0.7 8.7 5.3 5.4 7.8C2.1 10.3 -2.9 10.6 -6.1 8.4C-9.3 6.1 -10.5 1.1 -9.2 -2.9C-7.8 -6.8 -3.9 -9.9 0 -9.9C3.9 -9.9 7.9 -6.9 9.1 -3.1Z" stroke="#F7760E" fill="none" stroke-width="20"></path></g><g transform="translate(530 581)"><path d="M8.2 -2.5C9.4 1.1 8.4 5.6 5.5 7.7C2.7 9.8 -2 9.4 -4.9 7.2C-7.9 4.9 -9.2 0.8 -8.1 -2.7C-7 -6.2 -3.5 -9 0 -9C3.5 -9 6.9 -6.2 8.2 -2.5Z" stroke="#F7760E" fill="none" stroke-width="20"></path></g><g transform="translate(377 194)"><path d="M9.4 -3.1C10.6 0.7 8.9 5.3 5.9 7.3C2.9 9.3 -1.5 8.7 -4.4 6.4C-7.4 4.2 -8.9 0.4 -8 -3.1C-7 -6.6 -3.5 -9.7 0.3 -9.8C4.1 -9.9 8.2 -6.9 9.4 -3.1Z" stroke="#F7760E" fill="none" stroke-width="20"></path></g><g transform="translate(639 540)"><path d="M8.4 -2.5C9.7 1.2 8.6 5.8 5.5 8.2C2.3 10.7 -2.9 10.9 -6.3 8.5C-9.7 6.1 -11.3 0.9 -10 -2.8C-8.6 -6.6 -4.3 -9.1 -0.4 -8.9C3.6 -8.8 7.1 -6.2 8.4 -2.5Z" stroke="#F7760E" fill="none" stroke-width="20"></path></g><g transform="translate(605 7)"><path d="M7.2 -2.6C8.2 0.6 7 4.3 4.3 6.4C1.6 8.4 -2.6 8.8 -5.6 6.9C-8.5 4.9 -10.4 0.5 -9.2 -3C-8.1 -6.5 -4.1 -9.1 -0.5 -8.9C3.1 -8.8 6.2 -5.9 7.2 -2.6Z" stroke="#F7760E" fill="none" stroke-width="20"></path></g><g transform="translate(122 575)"><path d="M8 -2.7C9.3 1.1 8.2 5.5 5.4 7.6C2.6 9.7 -2 9.4 -5.2 7.1C-8.5 4.7 -10.4 0.4 -9.3 -3.3C-8.2 -6.9 -4.1 -9.9 -0.3 -9.8C3.4 -9.7 6.8 -6.5 8 -2.7Z" stroke="#F7760E" fill="none" stroke-width="20"></path></g><g transform="translate(258 64)"><path d="M8.9 -2.5C10.1 0.7 8.6 5.2 5.5 7.5C2.4 9.7 -2.4 9.7 -5.3 7.6C-8.2 5.4 -9.3 1 -8.1 -2.3C-6.9 -5.6 -3.5 -7.7 0.2 -7.8C3.9 -7.9 7.7 -5.8 8.9 -2.5Z" stroke="#F7760E" fill="none" stroke-width="20"></path></g><g transform="translate(651 461)"><path d="M10.1 -2.9C11.4 0.8 9.7 5.9 6.2 8.5C2.6 11.1 -2.8 11.2 -5.8 8.8C-8.9 6.4 -9.5 1.5 -8.2 -2.2C-6.8 -6 -3.4 -8.7 0.5 -8.8C4.4 -9 8.7 -6.6 10.1 -2.9Z" stroke="#F7760E" fill="none" stroke-width="20"></path></g><g transform="translate(107 387)"><path d="M9.1 -3.2C10.2 0.5 8.5 4.9 5.3 7.3C2.1 9.6 -2.6 9.9 -5.4 7.8C-8.1 5.7 -8.9 1.3 -7.7 -2.6C-6.4 -6.4 -3.2 -9.7 0.4 -9.8C4 -9.9 8 -6.9 9.1 -3.2Z" stroke="#F7760E" fill="none" stroke-width="20"></path></g><g transform="translate(39 390)"><path d="M7.4 -2.5C8.4 0.6 7.1 4.3 4.5 6.2C2 8.1 -2 8.1 -4.8 6.1C-7.7 4.1 -9.5 0.2 -8.5 -2.9C-7.6 -6 -3.8 -8.2 -0.3 -8.2C3.2 -8.1 6.4 -5.6 7.4 -2.5Z" stroke="#F7760E" fill="none" stroke-width="20"></path></g><g transform="translate(723 539)"><path d="M7.8 -2.8C8.9 0.9 7.8 5 5 7.1C2.2 9.1 -2.2 9.1 -5.3 7C-8.4 4.8 -10.1 0.5 -9 -3.2C-7.9 -6.9 -3.9 -9.9 -0.3 -9.8C3.3 -9.7 6.7 -6.5 7.8 -2.8Z" stroke="#F7760E" fill="none" stroke-width="20"></path></g><g transform="translate(506 304)"><path d="M9.4 -3.1C10.7 0.7 9 5.3 5.9 7.5C2.7 9.6 -1.8 9.2 -4.8 6.9C-7.9 4.7 -9.4 0.6 -8.3 -3C-7.3 -6.5 -3.6 -9.4 0.2 -9.5C4.1 -9.6 8.2 -6.8 9.4 -3.1Z" stroke="#F7760E" fill="none" stroke-width="20"></path></g><g transform="translate(227 346)"><path d="M8.7 -2.7C9.7 0.6 8.2 4.8 4.9 7.2C1.7 9.7 -3.1 10.3 -6.1 8.2C-9.2 6.1 -10.3 1.2 -9 -2.5C-7.7 -6.1 -3.8 -8.4 0 -8.4C3.8 -8.4 7.6 -6.1 8.7 -2.7Z" stroke="#F7760E" fill="none" stroke-width="20"></path></g><g transform="translate(300 394)"><path d="M8.8 -2.8C9.9 0.3 8.1 4.5 5.2 6.4C2.3 8.4 -1.7 8.1 -4.6 6.1C-7.5 4.1 -9.2 0.3 -8.3 -2.8C-7.3 -5.9 -3.7 -8.2 0.1 -8.2C3.9 -8.3 7.8 -6 8.8 -2.8Z" stroke="#F7760E" fill="none" stroke-width="20"></path></g><g transform="translate(547 188)"><path d="M8.1 -2.6C9.2 0.7 7.9 4.8 5.1 6.8C2.3 8.8 -1.9 8.6 -4.8 6.5C-7.8 4.4 -9.4 0.4 -8.4 -2.9C-7.4 -6.1 -3.7 -8.6 -0.1 -8.6C3.5 -8.6 7 -6 8.1 -2.6Z" stroke="#F7760E" fill="none" stroke-width="20"></path></g><g transform="translate(276 295)"><path d="M7.9 -2.7C8.9 0.5 7.5 4.4 4.5 6.6C1.6 8.9 -2.9 9.5 -5.9 7.5C-8.9 5.5 -10.5 0.8 -9.3 -2.8C-8.1 -6.3 -4 -8.7 -0.3 -8.6C3.5 -8.5 6.9 -6 7.9 -2.7Z" stroke="#F7760E" fill="none" stroke-width="20"></path></g><g transform="translate(87 449)"><path d="M9 -3.1C10 0.3 8.1 4.4 5 6.6C1.9 8.8 -2.4 9 -5.4 7C-8.5 4.9 -10.2 0.5 -9.1 -3C-7.9 -6.5 -4 -9.1 0 -9.1C4 -9.1 7.9 -6.5 9 -3.1Z" stroke="#F7760E" fill="none" stroke-width="20"></path></g><g transform="translate(62 515)"><path d="M8.3 -3.1C9.3 0.5 7.7 4.5 4.8 6.6C1.8 8.8 -2.5 9.1 -5.2 7.2C-7.8 5.2 -8.8 1 -7.6 -2.6C-6.5 -6.3 -3.3 -9.5 0.2 -9.5C3.6 -9.6 7.3 -6.6 8.3 -3.1Z" stroke="#F7760E" fill="none" stroke-width="20"></path></g><g transform="translate(326 284)"><path d="M9.1 -2.9C10.2 0.5 8.5 4.8 5.3 7.1C2.1 9.4 -2.5 9.5 -5.8 7.3C-9.1 5.1 -11.1 0.4 -10 -3.1C-8.8 -6.6 -4.4 -8.8 -0.2 -8.8C4 -8.7 8 -6.3 9.1 -2.9Z" stroke="#F7760E" fill="none" stroke-width="20"></path></g><g transform="translate(756 431)"><path d="M7.9 -2.8C9 0.7 7.7 4.8 4.8 7C2 9.1 -2.5 9.3 -5.4 7.3C-8.2 5.2 -9.5 0.9 -8.4 -2.8C-7.2 -6.6 -3.6 -9.6 -0.1 -9.6C3.4 -9.5 6.8 -6.4 7.9 -2.8Z" stroke="#F7760E" fill="none" stroke-width="20"></path></g><g transform="translate(640 293)"><path d="M7.9 -2.2C9.1 1.1 8.1 5.5 5.5 7.4C2.8 9.3 -1.5 8.7 -4.8 6.4C-8 4.1 -10.1 0 -9.2 -3C-8.2 -6.1 -4.1 -8.2 -0.4 -8.1C3.3 -8 6.7 -5.6 7.9 -2.2Z" stroke="#F7760E" fill="none" stroke-width="20"></path></g><g transform="translate(567 588)"><path d="M8.3 -2.3C9.6 1.3 8.7 6 5.7 8.3C2.7 10.6 -2.4 10.5 -5.7 8.1C-8.9 5.6 -10.4 0.9 -9.1 -2.7C-7.9 -6.3 -3.9 -8.8 -0.2 -8.7C3.5 -8.6 7 -6 8.3 -2.3Z" stroke="#F7760E" fill="none" stroke-width="20"></path></g><g transform="translate(175 429)"><path d="M8.5 -2.7C9.6 0.7 8.1 4.9 5 7.2C2 9.5 -2.7 9.8 -5.9 7.7C-9 5.5 -10.7 0.7 -9.5 -2.8C-8.2 -6.3 -4.1 -8.6 -0.2 -8.6C3.7 -8.5 7.4 -6 8.5 -2.7Z" stroke="#F7760E" fill="none" stroke-width="20"></path></g><g transform="translate(173 24)"><path d="M8.8 -2.5C10 0.8 8.5 5.3 5.4 7.7C2.2 10 -2.7 10.2 -5.7 8C-8.8 5.8 -10 1.1 -8.7 -2.3C-7.4 -5.7 -3.7 -7.8 0 -7.8C3.8 -7.9 7.6 -5.8 8.8 -2.5Z" stroke="#F7760E" fill="none" stroke-width="20"></path></g><g transform="translate(714 426)"><path d="M8.3 -3.1C9.3 0.4 7.7 4.4 4.6 6.7C1.5 9.1 -3.1 9.8 -5.7 7.8C-8.4 5.9 -9.2 1.3 -7.9 -2.5C-6.6 -6.4 -3.3 -9.6 0.2 -9.7C3.6 -9.7 7.3 -6.6 8.3 -3.1Z" stroke="#F7760E" fill="none" stroke-width="20"></path></g><g transform="translate(122 112)"><path d="M9.2 -3.1C10.3 0.2 8.2 4.4 5.1 6.5C2 8.6 -2.1 8.7 -5.1 6.6C-8.1 4.6 -9.8 0.4 -8.7 -2.9C-7.7 -6.2 -3.8 -8.6 0.1 -8.7C4.1 -8.7 8.2 -6.4 9.2 -3.1Z" stroke="#F7760E" fill="none" stroke-width="20"></path></g><g transform="translate(261 162)"><path d="M7.4 -2.3C8.5 1.1 7.7 5.3 5.2 7.1C2.6 9 -1.6 8.6 -4.5 6.4C-7.4 4.3 -8.9 0.4 -7.9 -2.7C-6.9 -5.9 -3.5 -8.4 -0.2 -8.3C3.1 -8.3 6.2 -5.6 7.4 -2.3Z" stroke="#F7760E" fill="none" stroke-width="20"></path></g><g transform="translate(679 313)"><path d="M9.9 -2.7C11.3 1 9.7 6.2 6.5 8.4C3.2 10.7 -1.8 10.1 -4.9 7.6C-8 5.2 -9.2 0.9 -8.1 -2.5C-6.9 -5.9 -3.5 -8.5 0.4 -8.6C4.3 -8.8 8.5 -6.5 9.9 -2.7Z" stroke="#F7760E" fill="none" stroke-width="20"></path></g><g transform="translate(275 192)"><path d="M8 -2.5C9.1 0.9 7.9 5 5.1 7.1C2.3 9.1 -2.1 9 -5 6.9C-7.8 4.8 -9.1 0.7 -8.1 -2.6C-7 -5.9 -3.5 -8.3 0 -8.3C3.4 -8.3 6.8 -5.8 8 -2.5Z" stroke="#F7760E" fill="none" stroke-width="20"></path></g><g transform="translate(58 137)"><path d="M8.8 -2.4C10.1 1.3 9.1 6.2 6.1 8.2C3.2 10.3 -1.6 9.6 -4.7 7.2C-7.8 4.8 -9.2 0.7 -8.1 -2.6C-7 -5.9 -3.5 -8.4 0.1 -8.5C3.7 -8.5 7.5 -6.1 8.8 -2.4Z" stroke="#F7760E" fill="none" stroke-width="20"></path></g><g transform="translate(231 147)"><path d="M8.7 -2.6C10 1.1 8.8 5.8 5.9 7.9C2.9 9.9 -1.7 9.4 -5 7C-8.3 4.6 -10.1 0.4 -9.1 -3C-8 -6.4 -4 -8.9 -0.1 -8.9C3.7 -8.8 7.4 -6.2 8.7 -2.6Z" stroke="#F7760E" fill="none" stroke-width="20"></path></g><g transform="translate(883 537)"><path d="M7.7 -2.8C8.8 0.7 7.5 4.7 4.5 7C1.5 9.4 -3.2 10.1 -5.9 8.1C-8.7 6.1 -9.4 1.4 -8.1 -2.5C-6.8 -6.3 -3.4 -9.3 0 -9.3C3.3 -9.3 6.7 -6.3 7.7 -2.8Z" stroke="#F7760E" fill="none" stroke-width="20"></path></g><g transform="translate(334 75)"><path d="M8.1 -2.4C9.4 1.2 8.4 5.8 5.5 8C2.5 10.3 -2.4 10.3 -5.6 7.9C-8.8 5.5 -10.2 0.9 -9 -2.7C-7.8 -6.2 -3.9 -8.6 -0.2 -8.6C3.4 -8.5 6.9 -5.9 8.1 -2.4Z" stroke="#F7760E" fill="none" stroke-width="20"></path></g><g transform="translate(405 4)"><path d="M9.2 -2.8C10.4 0.6 8.7 5.2 5.6 7.3C2.5 9.5 -2 9.3 -5 7.1C-8 4.9 -9.4 0.7 -8.3 -2.6C-7.2 -5.9 -3.6 -8.3 0.2 -8.3C4 -8.4 8.1 -6.2 9.2 -2.8Z" stroke="#F7760E" fill="none" stroke-width="20"></path></g><g transform="translate(524 146)"><path d="M8.2 -2.6C9.4 0.8 8.1 5.1 5.3 7.2C2.4 9.2 -2 9 -4.8 6.9C-7.6 4.8 -8.7 0.8 -7.7 -2.5C-6.6 -5.8 -3.3 -8.5 0.1 -8.5C3.5 -8.6 7.1 -6 8.2 -2.6Z" stroke="#F7760E" fill="none" stroke-width="20"></path></g><g transform="translate(352 248)"><path d="M9.3 -3.2C10.4 0.3 8.4 4.5 5.3 6.7C2.2 8.8 -2 8.7 -5 6.6C-8 4.5 -9.6 0.4 -8.6 -3C-7.6 -6.5 -3.8 -9.4 0.2 -9.4C4.1 -9.5 8.2 -6.7 9.3 -3.2Z" stroke="#F7760E" fill="none" stroke-width="20"></path></g><g transform="translate(569 327)"><path d="M8.6 -2.5C9.9 1 8.6 5.6 5.7 7.7C2.7 9.9 -2 9.6 -5.1 7.3C-8.2 5 -9.6 0.7 -8.5 -2.6C-7.4 -5.9 -3.7 -8.3 0 -8.3C3.7 -8.3 7.4 -5.9 8.6 -2.5Z" stroke="#F7760E" fill="none" stroke-width="20"></path></g><g transform="translate(86 23)"><path d="M9.6 -2.7C10.9 0.9 9.4 5.8 6.1 8.1C2.9 10.4 -2 10 -5.4 7.5C-8.8 5.1 -10.6 0.5 -9.4 -2.9C-8.3 -6.4 -4.1 -8.7 0 -8.7C4.1 -8.7 8.3 -6.4 9.6 -2.7Z" stroke="#F7760E" fill="none" stroke-width="20"></path></g><g transform="translate(609 578)"><path d="M9.5 -3.5C10.6 0.3 8.5 4.6 5.2 7.1C1.8 9.5 -3 10.1 -6.2 7.9C-9.5 5.7 -11.2 0.8 -9.9 -3.3C-8.6 -7.4 -4.3 -10.6 -0.1 -10.5C4.2 -10.5 8.4 -7.3 9.5 -3.5Z" stroke="#F7760E" fill="none" stroke-width="20"></path></g><g transform="translate(734 98)"><path d="M7.9 -2.9C9 0.7 7.7 4.8 4.9 6.9C2.1 9 -2.3 9.1 -5 7.1C-7.6 5.1 -8.6 1 -7.5 -2.6C-6.3 -6.3 -3.2 -9.5 0.1 -9.5C3.4 -9.6 6.9 -6.5 7.9 -2.9Z" stroke="#F7760E" fill="none" stroke-width="20"></path></g><g transform="translate(111 302)"><path d="M9.4 -3C10.6 0.9 9.1 5.7 5.8 8.1C2.5 10.5 -2.6 10.5 -5.9 8.1C-9.2 5.7 -10.8 0.8 -9.5 -3C-8.2 -6.9 -4.1 -9.7 0 -9.7C4 -9.7 8.1 -6.8 9.4 -3Z" stroke="#F7760E" fill="none" stroke-width="20"></path></g><g transform="translate(326 117)"><path d="M9 -2.8C10.3 1.1 9.1 6 6 8.2C2.9 10.5 -2 10.1 -5.5 7.5C-9 5 -11.1 0.4 -9.9 -3.4C-8.7 -7.1 -4.4 -10 -0.3 -9.9C3.8 -9.8 7.7 -6.8 9 -2.8Z" stroke="#F7760E" fill="none" stroke-width="20"></path></g><g transform="translate(753 148)"><path d="M8.9 -3.1C10.1 1 8.8 5.7 5.9 7.8C2.9 9.9 -1.8 9.3 -5.1 6.9C-8.4 4.5 -10.4 0.3 -9.3 -3.5C-8.3 -7.3 -4.1 -10.6 -0.2 -10.5C3.8 -10.5 7.6 -7.1 8.9 -3.1Z" stroke="#F7760E" fill="none" stroke-width="20"></path></g><g transform="translate(555 358)"><path d="M7.3 -2.5C8.3 0.6 7 4.3 4.3 6.3C1.7 8.3 -2.4 8.6 -5.2 6.7C-7.9 4.8 -9.3 0.7 -8.2 -2.6C-7.1 -5.8 -3.6 -8.2 -0.2 -8.2C3.2 -8.1 6.3 -5.6 7.3 -2.5Z" stroke="#F7760E" fill="none" stroke-width="20"></path></g><g transform="translate(159 128)"><path d="M9.6 -3.5C10.7 0.4 8.7 4.8 5.5 7.1C2.3 9.3 -2.3 9.3 -5.2 7.2C-8.2 5 -9.7 0.7 -8.6 -3.2C-7.4 -7.1 -3.7 -10.5 0.2 -10.6C4.2 -10.7 8.4 -7.4 9.6 -3.5Z" stroke="#F7760E" fill="none" stroke-width="20"></path></g><g transform="translate(795 272)"><path d="M8.9 -2.6C10 0.6 8.4 5.1 5.3 7.4C2.1 9.7 -2.6 9.9 -5.8 7.7C-9 5.4 -10.6 0.7 -9.4 -2.6C-8.1 -6 -4.1 -8.1 -0.1 -8.1C3.9 -8 7.7 -5.9 8.9 -2.6Z" stroke="#F7760E" fill="none" stroke-width="20"></path></g><g transform="translate(293 57)"><path d="M8.4 -2.8C9.7 1.2 8.6 5.8 5.6 8.1C2.6 10.4 -2.4 10.3 -5.7 7.8C-9.1 5.4 -10.9 0.6 -9.6 -3.2C-8.4 -7.1 -4.2 -10.1 -0.3 -10C3.6 -9.9 7.1 -6.7 8.4 -2.8Z" stroke="#F7760E" fill="none" stroke-width="20"></path></g><g transform="translate(859 125)"><path d="M10.1 -3.3C11.3 0.7 9.5 5.6 6.2 7.9C2.9 10.1 -1.8 9.6 -5.2 7.1C-8.5 4.7 -10.5 0.3 -9.4 -3.4C-8.3 -7.1 -4.2 -10.1 0.1 -10.1C4.4 -10.2 8.8 -7.2 10.1 -3.3Z" stroke="#F7760E" fill="none" stroke-width="20"></path></g><g transform="translate(712 182)"><path d="M9 -2.6C10.2 0.9 8.8 5.5 5.7 7.6C2.7 9.8 -2 9.5 -5.2 7.1C-8.5 4.7 -10.4 0.4 -9.3 -2.9C-8.2 -6.2 -4.1 -8.3 -0.1 -8.3C3.9 -8.2 7.7 -6 9 -2.6Z" stroke="#F7760E" fill="none" stroke-width="20"></path></g><g transform="translate(660 258)"><path d="M9.4 -3.4C10.4 0.2 8.4 4.5 5 7C1.6 9.5 -3.2 10.2 -6.2 8.2C-9.1 6.1 -10.2 1.2 -8.9 -2.8C-7.6 -6.8 -3.8 -10 0.2 -10.1C4.2 -10.1 8.3 -7.1 9.4 -3.4Z" stroke="#F7760E" fill="none" stroke-width="20"></path></g><g transform="translate(365 38)"><path d="M8.5 -2.3C9.8 1.2 8.8 6 5.9 8.1C3 10.3 -1.9 9.8 -5 7.4C-8.1 5 -9.4 0.8 -8.3 -2.6C-7.2 -5.9 -3.6 -8.3 0 -8.3C3.6 -8.3 7.2 -5.9 8.5 -2.3Z" stroke="#F7760E" fill="none" stroke-width="20"></path></g><g transform="translate(670 207)"><path d="M7.3 -2.7C8.3 0.6 7.1 4.4 4.5 6.3C1.9 8.2 -2.1 8.3 -4.7 6.4C-7.3 4.5 -8.5 0.7 -7.5 -2.6C-6.5 -6 -3.3 -8.8 0 -8.8C3.2 -8.8 6.4 -5.9 7.3 -2.7Z" stroke="#F7760E" fill="none" stroke-width="20"></path></g><g transform="translate(440 254)"><path d="M7.3 -2.5C8.4 0.9 7.4 4.8 4.6 7C1.8 9.2 -2.8 9.6 -5.7 7.6C-8.6 5.5 -9.9 0.9 -8.7 -2.7C-7.5 -6.2 -3.8 -8.8 -0.3 -8.7C3.1 -8.6 6.2 -5.8 7.3 -2.5Z" stroke="#F7760E" fill="none" stroke-width="20"></path></g><g transform="translate(471 312)"><path d="M9.7 -3.5C10.8 0.2 8.7 4.7 5.4 6.9C2.2 9.1 -2.2 9.1 -5.5 6.9C-8.7 4.7 -10.8 0.2 -9.7 -3.5C-8.6 -7.2 -4.3 -10.2 0 -10.2C4.3 -10.2 8.6 -7.2 9.7 -3.5Z" stroke="#F7760E" fill="none" stroke-width="20"></path></g><g transform="translate(518 55)"><path d="M8 -2.3C9.4 1.5 8.7 6.2 5.9 8.3C3.1 10.3 -1.7 9.7 -5 7.3C-8.2 4.8 -9.8 0.5 -8.7 -3C-7.6 -6.5 -3.8 -9.2 -0.2 -9.1C3.4 -9 6.7 -6.1 8 -2.3Z" stroke="#F7760E" fill="none" stroke-width="20"></path></g><g transform="translate(42 268)"><path d="M7.8 -2.7C8.9 0.8 7.7 4.9 4.9 7C2.1 9.1 -2.3 9.2 -5.4 7.1C-8.5 4.9 -10.3 0.5 -9.2 -3.1C-8 -6.7 -4 -9.4 -0.3 -9.3C3.3 -9.2 6.7 -6.2 7.8 -2.7Z" stroke="#F7760E" fill="none" stroke-width="20"></path></g><g transform="translate(550 403)"><path d="M7.9 -2.8C9 1 8 5.4 5.1 7.7C2.1 10 -2.8 10.3 -6.1 8C-9.4 5.7 -11.2 0.7 -9.9 -3.3C-8.6 -7.3 -4.3 -10.3 -0.5 -10.2C3.3 -10 6.7 -6.6 7.9 -2.8Z" stroke="#F7760E" fill="none" stroke-width="20"></path></g><g transform="translate(308 200)"><path d="M8.6 -2.9C9.7 0.4 8 4.5 4.9 6.8C1.8 9 -2.7 9.4 -5.9 7.3C-9.2 5.1 -11.2 0.4 -10 -3.1C-8.8 -6.6 -4.4 -8.8 -0.3 -8.7C3.8 -8.6 7.6 -6.2 8.6 -2.9Z" stroke="#F7760E" fill="none" stroke-width="20"></path></g><g transform="translate(490 7)"><path d="M9.5 -3.3C10.7 0.5 8.9 5.1 5.5 7.5C2.1 9.9 -2.7 10.2 -5.9 8C-9 5.7 -10.3 1 -9 -3C-7.8 -6.9 -3.9 -10.1 0.1 -10.2C4.2 -10.2 8.3 -7.1 9.5 -3.3Z" stroke="#F7760E" fill="none" stroke-width="20"></path></g><g transform="translate(437 149)"><path d="M10.1 -3.5C11.3 0.4 9.2 5.2 5.7 7.7C2.2 10.2 -2.8 10.5 -5.8 8.3C-8.7 6.1 -9.5 1.4 -8.2 -2.7C-6.9 -6.9 -3.5 -10.3 0.5 -10.5C4.4 -10.7 8.9 -7.5 10.1 -3.5Z" stroke="#F7760E" fill="none" stroke-width="20"></path></g></g></svg>